# xmcd CD database file generated by Grip 2.91
# 
# Track frame offsets:
#       182
#       13215
#       24515
#       37010
#       48777
#       59835
#       72880
#       85695
# 
# Disc length: 1299 seconds
# 
# Revision: 3
# Processed by: cddbd v1.4b41PL1 Copyright (c) Steve Scherf et al.
# Submitted via: Grip 2.91
# 
DISCID=66051108
DTITLE=Bubber Johnson - Original Blues
DYEAR=1900
DGENRE=
TTITLE0=Come Home
TTITLE1=I Surrender Dear
TTITLE2=Butterfly
TTITLE3=Too Many Hearts
TTITLE4=My Baby's Gone
TTITLE5=I Know My Baby
TTITLE6=Atlanta
TTITLE7=Finger Tips
EXTD=
EXTT0=
EXTT1=
EXTT2=
EXTT3=
EXTT4=
EXTT5=
EXTT6=
EXTT7=
PLAYORDER=
